<svg id="visual" viewBox="0 0 600 900" width="600" height="900" xmlns="http://www.w3.org/2000/svg" xmlns:xlink="http://www.w3.org/1999/xlink" version="1.1"><rect x="0" y="0" width="600" height="900" fill="#001220"></rect><defs><linearGradient id="grad1_0" x1="0%" y1="100%" x2="100%" y2="0%"><stop offset="30%" stop-color="#001220" stop-opacity="1"></stop><stop offset="70%" stop-color="#001220" stop-opacity="1"></stop></linearGradient></defs><defs><linearGradient id="grad2_0" x1="0%" y1="100%" x2="100%" y2="0%"><stop offset="30%" stop-color="#001220" stop-opacity="1"></stop><stop offset="70%" stop-color="#001220" stop-opacity="1"></stop></linearGradient></defs><g transform="translate(600, 900)"><path d="M-297.5 0C-269 -24.9 -240.5 -49.7 -226.4 -73.5C-212.2 -97.4 -212.5 -120.1 -208.7 -151.6C-205 -183.2 -197.3 -223.4 -174.8 -240.6C-152.4 -257.9 -115.3 -252.1 -83.7 -257.7C-52.2 -263.4 -26.1 -280.4 0 -297.5L0 0Z" fill="#FBAE3C"></path></g><g transform="translate(0, 0)"><path d="M297.5 0C297.7 33.5 297.9 66.9 282.9 91.9C267.9 116.9 237.7 133.5 218.4 158.7C199.2 183.9 191 217.9 169.3 233C147.6 248.1 112.4 244.4 81.9 252C51.4 259.6 25.7 278.5 0 297.5L0 0Z" fill="#FBAE3C"></path></g></svg>