<svg id="visual" viewBox="0 0 600 900" width="600" height="900" xmlns="http://www.w3.org/2000/svg" xmlns:xlink="http://www.w3.org/1999/xlink" version="1.1"><rect x="0" y="0" width="600" height="900" fill="#001220"></rect><defs><linearGradient id="grad1_0" x1="0%" y1="0%" x2="100%" y2="100%"><stop offset="30%" stop-color="#001220" stop-opacity="1"></stop><stop offset="70%" stop-color="#001220" stop-opacity="1"></stop></linearGradient></defs><defs><linearGradient id="grad2_0" x1="0%" y1="0%" x2="100%" y2="100%"><stop offset="30%" stop-color="#001220" stop-opacity="1"></stop><stop offset="70%" stop-color="#001220" stop-opacity="1"></stop></linearGradient></defs><g transform="translate(600, 0)"><path d="M0 297.5C-24.9 269 -49.7 240.5 -73.5 226.4C-97.4 212.2 -120.1 212.5 -151.6 208.7C-183.2 205 -223.4 197.3 -240.6 174.8C-257.9 152.4 -252.1 115.3 -257.7 83.7C-263.4 52.2 -280.4 26.1 -297.5 0L0 0Z" fill="#FBAE3C"></path></g><g transform="translate(0, 900)"><path d="M0 -297.5C33.5 -297.7 66.9 -297.9 91.9 -282.9C116.9 -267.9 133.5 -237.7 158.7 -218.4C183.9 -199.2 217.9 -191 233 -169.3C248.1 -147.6 244.4 -112.4 252 -81.9C259.6 -51.4 278.5 -25.7 297.5 0L0 0Z" fill="#FBAE3C"></path></g></svg>